<svg width="71" height="54" viewBox="0 0 71 54" fill="none" xmlns="http://www.w3.org/2000/svg">
<path fill-rule="evenodd" clip-rule="evenodd" d="M16.1083 53.1551C15.4083 53.0139 14.9049 52.3988 14.9049 51.6847V48.0727L14.8607 48.057L14.8569 48.0556C13.0222 47.4143 11.3489 46.4464 9.87435 45.1773L9.83748 45.1456L6.69832 46.9585C6.08046 47.3153 5.29678 47.1875 4.82426 46.653C3.0417 44.6362 1.68657 42.273 0.829374 39.7428C0.599884 39.0654 0.880558 38.3202 1.4999 37.9626L4.6395 36.1494L4.63124 36.1057L4.62929 36.0952C4.28316 34.1908 4.28316 32.2525 4.62929 30.3481L4.63124 30.3376L4.6395 30.2939L1.4999 28.4807C0.880425 28.123 0.599781 27.3776 0.829505 26.7001C1.69185 24.157 3.04863 21.8096 4.82172 19.7932C5.29382 19.2563 6.07922 19.1272 6.69832 19.4848L9.83748 21.2977L9.87917 21.2618C11.3496 20.0071 13.0299 19.0299 14.8555 18.3881L14.8581 18.3872L14.9049 18.3706V14.7488C14.9049 14.0347 15.4083 13.4196 16.1083 13.2784C18.7368 12.7483 21.4594 12.7483 24.0878 13.2784C24.7878 13.4196 25.2913 14.0347 25.2913 14.7488V18.3608L25.3354 18.3765L25.3393 18.3779C27.174 19.0191 28.8472 19.9871 30.3218 21.2561L30.3587 21.2879L33.4978 19.475C34.1157 19.1182 34.8994 19.2459 35.3719 19.7805C37.0405 21.6684 38.902 24.0448 39.7984 26.6907C40.0279 27.368 39.7472 28.1132 39.1279 28.4709L35.9883 30.2841L35.9965 30.3278L35.9985 30.3383C36.3446 32.2427 36.3446 34.181 35.9985 36.0854L35.9965 36.0959L35.9883 36.1396L39.1279 37.9528C39.7472 38.3104 40.0279 39.0556 39.7984 39.733C38.9017 42.3797 37.0387 44.7474 35.3745 46.6402C34.9024 47.1771 34.117 47.3062 33.4978 46.9487L30.3587 45.1358L30.317 45.1717C28.8465 46.4264 27.1661 47.4037 25.3404 48.0454L25.3381 48.0462L25.2913 48.0629V51.6847C25.2913 52.3988 24.7878 53.0139 24.0878 53.1551C21.4594 53.6852 18.7368 53.6852 16.1083 53.1551ZM24.8409 46.631L23.7913 47.0039V51.6847C21.3586 52.1754 18.8376 52.1754 16.4049 51.6847V47.0137L15.3553 46.6408C13.6975 46.0619 12.1869 45.1885 10.8528 44.0404L10.0092 43.3143L5.94816 45.6596C4.3002 43.7951 3.04461 41.6068 2.25006 39.2615L6.31111 36.9162L6.10511 35.827C5.79121 34.0999 5.79121 32.3434 6.10511 30.6163L6.31111 29.5271L2.25006 27.1818C3.04889 24.826 4.30572 22.6516 5.94816 20.7837L10.0092 23.129L10.8528 22.4029C12.1869 21.2646 13.7073 20.3814 15.3553 19.8024L16.4049 19.4295V14.7488C18.8376 14.2581 21.3586 14.2581 23.7913 14.7488V19.4197L24.8409 19.7926C26.4986 20.3716 28.0093 21.2449 29.3433 22.3931L30.1869 23.1192L34.248 20.7739C35.896 22.6384 37.5832 24.8267 38.3777 27.172L34.3167 29.5173L34.5227 30.6065C34.8365 32.3336 34.8365 34.0901 34.5227 35.8172L34.3167 36.9064L38.3777 39.2517C37.5832 41.597 35.896 43.7755 34.248 45.6497L30.1869 43.3044L29.3433 44.0306C28.0093 45.1689 26.4888 46.0521 24.8409 46.631Z" fill="black"/>
<path fill-rule="evenodd" clip-rule="evenodd" d="M28.028 33.2175C28.028 37.5137 24.5452 40.9964 20.249 40.9964C15.9528 40.9964 12.4701 37.5137 12.4701 33.2175C12.4701 28.9213 15.9528 25.4385 20.249 25.4385C24.5452 25.4385 28.028 28.9213 28.028 33.2175ZM20.249 39.4964C23.7168 39.4964 26.528 36.6852 26.528 33.2175C26.528 29.7497 23.7168 26.9385 20.249 26.9385C16.7813 26.9385 13.9701 29.7497 13.9701 33.2175C13.9701 36.6852 16.7813 39.4964 20.249 39.4964Z" fill="black"/>
<path fill-rule="evenodd" clip-rule="evenodd" d="M45.9815 51.2656C45.4431 50.7965 45.3101 50.0128 45.6635 49.3923L46.2629 48.3401C45.8531 47.8038 45.5133 47.2222 45.2466 46.6022L44.0295 46.6094C43.3161 46.6137 42.6983 46.1148 42.5524 45.4164C42.265 44.0417 42.2613 42.6227 42.5254 41.2575C42.6613 40.5554 43.274 40.0468 43.9892 40.0425L45.2098 40.0353C45.4717 39.4146 45.8054 38.8288 46.2057 38.287L45.5893 37.2334C45.2281 36.6159 45.3532 35.8293 45.8881 35.3543C46.9339 34.4258 48.153 33.7132 49.4752 33.2578C50.1511 33.025 50.8974 33.3015 51.2584 33.9186L51.8738 34.9706C52.5407 34.8857 53.2156 34.8804 53.8856 34.9579L54.4879 33.9006C54.8413 33.2801 55.5832 32.9948 56.2613 33.2186C57.5885 33.6566 58.8211 34.3587 59.8747 35.2768C60.4131 35.746 60.5461 36.5296 60.1927 37.1501L59.5933 38.2024C60.0031 38.7387 60.3429 39.3203 60.6096 39.9402L61.8267 39.933C62.5401 39.9288 63.1579 40.4277 63.3038 41.1261C63.556 42.3323 63.7992 43.903 63.5118 45.388C63.3759 46.0902 62.7632 46.5988 62.048 46.6031L60.8274 46.6103C60.5655 47.2309 60.2318 47.8168 59.8316 48.3586L60.4479 49.4122C60.809 50.0295 60.6841 50.816 60.1494 51.291C59.0179 52.2962 57.5434 52.8842 56.3811 53.2846C55.7051 53.5175 54.9588 53.241 54.5978 52.6238L53.9824 51.5718C53.3155 51.6568 52.6406 51.6621 51.9706 51.5846L51.3683 52.6419C51.0149 53.2624 50.273 53.5477 49.5949 53.3239C48.2677 52.8859 47.0351 52.1838 45.9815 51.2656ZM51.1832 49.9362L51.7125 50.0306C52.542 50.1815 53.3907 50.1743 54.2222 50.0156L54.7495 49.9126L55.8925 51.8664C57.0315 51.474 58.2596 50.9634 59.1532 50.1696L58.0102 48.2157L58.3568 47.8081C58.9011 47.1587 59.3207 46.422 59.6017 45.6226L59.7755 45.1165L62.0391 45.1031C62.2662 43.9296 62.0813 42.6087 61.8356 41.433L59.572 41.4464L59.3916 40.9403C59.1064 40.1401 58.6815 39.4129 58.1245 38.774L57.7733 38.3668L58.8893 36.4077C57.9862 35.6207 56.9288 35.0184 55.7913 34.643L54.673 36.6063L54.1437 36.5119C53.3142 36.361 52.4655 36.3682 51.634 36.5269L51.1067 36.6299L49.9637 34.676C48.8286 35.067 47.7819 35.6788 46.8841 36.476L48.027 38.4299L47.6804 38.8375C47.1362 39.4869 46.7165 40.2236 46.4355 41.023L46.2617 41.529L43.9981 41.5425C43.771 42.716 43.7749 43.9338 44.0206 45.1095L46.2842 45.096L46.4646 45.6021C46.7498 46.4024 47.1747 47.1296 47.7317 47.7685L48.0829 48.1757L46.9669 50.1348C47.87 50.9217 48.9274 51.524 50.0649 51.8994L51.1832 49.9362Z" fill="black"/>
<path fill-rule="evenodd" clip-rule="evenodd" d="M56.9285 45.5503C55.69 47.7246 52.9234 48.4832 50.7491 47.2447C48.5748 46.0062 47.8162 43.2395 49.0547 41.0652C50.2932 38.891 53.0599 38.1324 55.2342 39.3709C57.4084 40.6094 58.167 43.376 56.9285 45.5503ZM51.4915 45.9413C52.946 46.7698 54.7967 46.2623 55.6252 44.8079C56.4536 43.3534 55.9462 41.5027 54.4917 40.6742C53.0373 39.8458 51.1866 40.3532 50.3581 41.8077C49.5296 43.2621 50.0371 45.1128 51.4915 45.9413Z" fill="black"/>
<path fill-rule="evenodd" clip-rule="evenodd" d="M50.8737 21.8316C50.5132 21.2152 50.6373 20.4301 51.1703 19.9548L52.0741 19.1489C51.8569 18.5099 51.7204 17.8502 51.6656 17.1776L50.5098 16.796C49.8323 16.5723 49.4061 15.9024 49.4906 15.1939C49.657 13.7995 50.1063 12.4534 50.7924 11.2439C51.1452 10.6218 51.8882 10.3354 52.5673 10.5596L53.7264 10.9423C54.1727 10.4377 54.6759 9.98899 55.2282 9.60323L54.9803 8.40803C54.835 7.70757 55.2046 7.00201 55.8632 6.7226C57.1506 6.17635 58.5333 5.89013 59.9317 5.88046C60.6466 5.87552 61.2656 6.37581 61.4108 7.07584L61.6583 8.26923C62.3174 8.40156 62.9587 8.61189 63.569 8.89918L64.4771 8.0894C65.0101 7.61415 65.8043 7.58053 66.3755 8.00904C67.4935 8.84767 68.4376 9.90641 69.1431 11.1128C69.5036 11.7293 69.3796 12.5144 68.8466 12.9896L67.9427 13.7955C68.1599 14.4346 68.2964 15.0942 68.3513 15.7669L69.507 16.1485C70.1845 16.3721 70.6107 17.0421 70.5262 17.7506C70.3802 18.9742 70.1094 20.5403 69.3631 21.856C69.0103 22.4781 68.2673 22.7646 67.5881 22.5404L66.429 22.1577C65.9828 22.6623 65.4795 23.111 64.9273 23.4967L65.1752 24.6919C65.3204 25.3922 64.951 26.0977 64.2927 26.3772C62.8996 26.9688 61.3145 27.0554 60.0852 27.064C59.3703 27.069 58.7512 26.5687 58.606 25.8686L58.3585 24.6752C57.6994 24.5429 57.0581 24.3326 56.4478 24.0453L55.5397 24.8551C55.0067 25.3303 54.2125 25.3639 53.6413 24.9354C52.5233 24.0968 51.5792 23.0381 50.8737 21.8316ZM56.2277 22.2318L56.6992 22.4902C57.4372 22.8979 58.2438 23.162 59.0825 23.2769L59.6151 23.3476L60.0747 25.564C61.2794 25.5557 62.6062 25.4637 63.7064 24.9965L63.2468 22.78L63.7054 22.5043C64.4284 22.0626 65.0612 21.4983 65.5826 20.8304L65.9089 20.4063L68.0584 21.116C68.6481 20.0763 68.8944 18.7655 69.0368 17.5728L66.8872 16.8632L66.8778 16.326C66.8629 15.4765 66.6923 14.6517 66.3683 13.8685L66.1655 13.3706L67.8483 11.8701C67.2435 10.836 66.4337 9.92778 65.4754 9.20896L63.7891 10.7126L63.3176 10.4543C62.5796 10.0466 61.773 9.78251 60.9343 9.66756L60.4017 9.59691L59.9421 7.38043C58.7415 7.38873 57.5544 7.63445 56.4491 8.10344L56.9087 10.3199L56.4501 10.5956C55.7271 11.0374 55.0942 11.6016 54.5729 12.2695L54.2466 12.6936L52.0971 11.984C51.5074 13.0237 51.1224 14.179 50.9801 15.3716L53.1296 16.0813L53.139 16.6185C53.1539 17.4679 53.3246 18.2927 53.6485 19.076L53.8513 19.5739L52.1685 21.0744C52.7733 22.1085 53.5831 23.0167 54.5414 23.7355L56.2277 22.2318Z" fill="black"/>
<path fill-rule="evenodd" clip-rule="evenodd" d="M63.0723 19.9089C61.2046 21.5742 58.3406 21.4102 56.6752 19.5426C55.0099 17.6749 55.1739 14.8109 57.0416 13.1455C58.9092 11.4802 61.7732 11.6442 63.4386 13.5118C65.1039 15.3795 64.9399 18.2435 63.0723 19.9089ZM57.7948 18.5443C58.9088 19.7936 60.8247 19.9033 62.074 18.7893C63.3233 17.6753 63.433 15.7595 62.319 14.5101C61.205 13.2608 59.2892 13.1511 58.0398 14.2651C56.7905 15.3791 56.6808 17.295 57.7948 18.5443Z" fill="black"/>
<path fill-rule="evenodd" clip-rule="evenodd" d="M43.1791 13.915C43.5566 14.1305 43.8221 14.4992 43.9068 14.9256L44.444 17.6317C44.5687 18.2596 44.2811 18.8974 43.7281 19.2197C43.175 19.5421 42.4784 19.478 41.9935 19.0601L39.6066 17.0029C39.201 16.6534 39.0125 16.1141 39.112 15.5879C39.2115 15.0618 39.5839 14.6286 40.0892 14.4513L41.9389 13.8023C42.3491 13.6584 42.8015 13.6995 43.1791 13.915ZM42.4355 15.2177L42.9727 17.9238L40.5858 15.8667L42.4355 15.2177Z" fill="black"/>
<path fill-rule="evenodd" clip-rule="evenodd" d="M32.1304 6.81588C32.6065 6.82672 33.0491 7.06295 33.3231 7.4524L35.9639 11.2061C36.3532 11.7595 36.3238 12.5051 35.8921 13.0262C35.4603 13.5473 34.7331 13.7147 34.1169 13.435L30.0132 11.5717C29.5956 11.3822 29.2877 11.012 29.1773 10.5668C29.067 10.1217 29.1663 9.65056 29.447 9.28789L30.91 7.39744C31.2015 7.02087 31.6544 6.80503 32.1304 6.81588ZM30.6333 10.2059L34.737 12.0691L32.0963 8.31549L30.6333 10.2059Z" fill="black"/>
<path fill-rule="evenodd" clip-rule="evenodd" d="M46.2747 1.51926C46.5232 1.94887 46.5431 2.4736 46.3279 2.92083L43.8585 8.05225C43.5816 8.62776 42.9706 8.96478 42.336 8.89203C41.7015 8.81928 41.1826 8.35272 41.0431 7.72946L39.8339 2.32767C39.7302 1.86442 39.8519 1.37942 40.1621 1.02002C40.4722 0.660617 40.9342 0.469245 41.4076 0.504042L45.0862 0.774408C45.5812 0.810788 46.0262 1.08965 46.2747 1.51926ZM41.2977 2.00001L42.5069 7.40179L44.9763 2.27037L41.2977 2.00001Z" fill="black"/>
</svg>
