<svg width="121" height="120" viewBox="0 0 121 120" fill="none" xmlns="http://www.w3.org/2000/svg">
<circle cx="60.5" cy="60" r="60" fill="#84241A"/>
<path d="M63.3136 27.4297H57.6861C56.0151 27.4297 54.6805 28.8212 54.7498 30.4909L56.464 71.6338C56.5297 73.2077 57.8249 74.4501 59.4004 74.4501H61.5993C63.175 74.4501 64.47 73.208 64.5356 71.6338L66.2499 30.4909C66.3195 28.8212 64.9845 27.4297 63.3136 27.4297Z" fill="white"/>
<path d="M53.6428 86.2052C53.6428 82.4181 56.7129 79.3481 60.5 79.3481C64.2871 79.3481 67.3571 82.4181 67.3571 86.2052C67.3571 89.9923 64.2871 93.0623 60.5 93.0623C56.7129 93.0623 53.6428 89.9923 53.6428 86.2052Z" fill="white"/>
</svg>
