<svg width="52" height="52" viewBox="0 0 52 52" fill="none" xmlns="http://www.w3.org/2000/svg">
<path d="M30.5843 40.0869L22.5406 48.1296C17.3835 53.2889 9.02907 53.2914 3.86941 48.1296C-1.28984 42.9725 -1.29238 34.6181 3.86941 29.4584L11.9121 21.4147C12.0295 21.2973 12.1491 21.1821 12.2708 21.0691C13.0376 20.3577 14.2812 20.8656 14.3232 21.9107C14.3428 22.3989 14.3839 22.8864 14.4467 23.3715C14.4955 23.749 14.3709 24.1279 14.1017 24.3969C12.4279 26.0695 6.47011 32.027 6.45407 32.0431C2.72288 35.7764 2.72359 41.8121 6.45407 45.5448C10.1874 49.2759 16.2231 49.2752 19.9557 45.5448L27.9994 37.501L28.036 37.4645C31.7228 33.74 31.7065 27.7074 27.9984 23.9994C27.1642 23.1651 26.2133 22.5186 25.1968 22.0586C24.7331 21.8488 24.4426 21.3815 24.4723 20.8734C24.5029 20.3469 24.5993 19.8262 24.7593 19.3237C24.9729 18.6533 25.7273 18.312 26.3761 18.5843C27.9069 19.2266 29.3404 20.1707 30.5843 21.4146C35.7323 26.5627 35.7314 34.9396 30.5843 40.0869ZM21.4136 30.5854C22.6576 31.8293 24.091 32.7734 25.6219 33.4157C26.2707 33.6879 27.0251 33.3466 27.2386 32.6763C27.3986 32.1738 27.4951 31.6531 27.5257 31.1266C27.5553 30.6185 27.2647 30.1512 26.8011 29.9414C25.7847 29.4815 24.8338 28.835 23.9995 28.0006C20.2915 24.2926 20.2751 18.26 23.9619 14.5355L23.9985 14.499L32.0422 6.45525C35.7748 2.72477 41.8106 2.72406 45.5439 6.45525C49.2744 10.1879 49.2751 16.2236 45.5439 19.9569C45.5279 19.9729 39.5701 25.9305 37.8963 27.6031C37.627 27.8722 37.5024 28.251 37.5512 28.6285C37.6139 29.1134 37.6552 29.6008 37.6747 30.0893C37.7167 31.1345 38.9604 31.6423 39.7271 30.9309C39.8488 30.8179 39.9684 30.7027 40.0858 30.5853L48.1285 22.5416C53.2903 17.3819 53.2878 9.02751 48.1285 3.87039C42.969 -1.2914 34.6145 -1.28886 29.4574 3.87039L21.4136 11.9131C16.2666 17.0605 16.2657 25.4374 21.4136 30.5854Z" fill="black"/>
</svg>
