<svg width="60" height="42" viewBox="0 0 60 42" fill="none" xmlns="http://www.w3.org/2000/svg">
<path d="M51 18C55.1437 18 58.5 14.6438 58.5 10.5C58.5 6.35625 55.1437 3 51 3C46.8563 3 43.5 6.35625 43.5 10.5C43.5 14.6438 46.8563 18 51 18ZM51 6C53.4844 6 55.5 8.01562 55.5 10.5C55.5 12.9844 53.4844 15 51 15C48.5156 15 46.5 12.9844 46.5 10.5C46.5 8.01562 48.5156 6 51 6ZM30 21C35.8031 21 40.5 16.3031 40.5 10.5C40.5 4.69687 35.8031 0 30 0C24.1969 0 19.5 4.69687 19.5 10.5C19.5 16.3031 24.1969 21 30 21ZM30 3C34.1344 3 37.5 6.36563 37.5 10.5C37.5 14.6344 34.1344 18 30 18C25.8656 18 22.5 14.6344 22.5 10.5C22.5 6.36563 25.8656 3 30 3ZM52.875 21H49.125C47.7 21 46.3781 21.45 45.2719 22.2094C46.1531 22.8094 46.95 23.5125 47.6531 24.3094C48.1125 24.1125 48.6094 24 49.125 24H52.875C55.1437 24 57 26.0156 57 28.5C57 29.325 57.675 30 58.5 30C59.325 30 60 29.325 60 28.5C60 24.3656 56.8031 21 52.875 21ZM9 18C13.1438 18 16.5 14.6438 16.5 10.5C16.5 6.35625 13.1438 3 9 3C4.85625 3 1.5 6.35625 1.5 10.5C1.5 14.6438 4.85625 18 9 18ZM9 6C11.4844 6 13.5 8.01562 13.5 10.5C13.5 12.9844 11.4844 15 9 15C6.51562 15 4.5 12.9844 4.5 10.5C4.5 8.01562 6.51562 6 9 6ZM37.5094 22.875C34.3781 22.875 33.6 24 30 24C26.4 24 25.6219 22.875 22.4906 22.875C19.0875 22.875 15.7781 24.3937 13.8375 27.2719C12.675 28.9969 12 31.0688 12 33.3V37.5C12 39.9844 14.0156 42 16.5 42H43.5C45.9844 42 48 39.9844 48 37.5V33.3C48 31.0688 47.325 28.9969 46.1625 27.2719C44.2219 24.3937 40.9125 22.875 37.5094 22.875ZM45 37.5C45 38.325 44.325 39 43.5 39H16.5C15.675 39 15 38.325 15 37.5V33.3C15 31.7438 15.4594 30.2344 16.3219 28.95C17.6156 27.0281 19.9219 25.875 22.4813 25.875C25.05 25.875 25.9688 27 30 27C34.0312 27 34.95 25.875 37.5094 25.875C40.0688 25.875 42.375 27.0281 43.6687 28.95C44.5312 30.2344 44.9906 31.7438 44.9906 33.3V37.5H45ZM14.7281 22.2094C13.6125 21.45 12.2906 21 10.875 21H7.125C3.19687 21 0 24.3656 0 28.5C0 29.325 0.675 30 1.5 30C2.325 30 3 29.325 3 28.5C3 26.0156 4.85625 24 7.125 24H10.875C11.3906 24 11.8875 24.1125 12.3469 24.3094C13.05 23.5125 13.8563 22.8094 14.7281 22.2094Z" fill="black"/>
</svg>
