<svg width="75" height="58" viewBox="0 0 75 58" fill="none" xmlns="http://www.w3.org/2000/svg">
<path d="M75 8.46498L66.6503 16.93L64.7454 15.051L69.922 9.80284H52.0495V7.12712H69.922L64.7454 1.87901L66.6503 0L75 8.46498Z" fill="black"/>
<path fill-rule="evenodd" clip-rule="evenodd" d="M37.4723 36.612C41.553 36.612 44.8611 33.3039 44.8611 29.2232C44.8611 25.1424 41.553 21.8343 37.4723 21.8343C33.3915 21.8343 30.0834 25.1424 30.0834 29.2232C30.0834 33.3039 33.3915 36.612 37.4723 36.612ZM37.4723 33.8412C40.0227 33.8412 42.0903 31.7737 42.0903 29.2232C42.0903 26.6727 40.0227 24.6052 37.4723 24.6052C34.9218 24.6052 32.8542 26.6727 32.8542 29.2232C32.8542 31.7737 34.9218 33.8412 37.4723 33.8412Z" fill="black"/>
<path d="M21.771 27.376H25.4654V31.0704H21.771V27.376Z" fill="black"/>
<path d="M49.4791 27.376H53.1736V31.0704H49.4791V27.376Z" fill="black"/>
<path fill-rule="evenodd" clip-rule="evenodd" d="M13.9202 43.4167V13.9837H61.0798V43.4167H13.9202ZM16.6962 16.7597H58.3038V40.6406H16.6962V16.7597Z" fill="black"/>
<path d="M8.34969 40.4704L0 48.9354L8.34969 57.4004L10.2546 55.5214L5.07801 50.2733H22.9505V47.5975H5.07801L10.2546 42.3494L8.34969 40.4704Z" fill="black"/>
</svg>
