<svg width="56" height="50" viewBox="0 0 56 50" fill="none" xmlns="http://www.w3.org/2000/svg">
<path d="M7.77778 34.2222H1.55556C0.696111 34.2222 0 34.9183 0 35.7778V48.2222C0 49.0817 0.696111 49.7778 1.55556 49.7778H7.77778C8.63722 49.7778 9.33333 49.0817 9.33333 48.2222V35.7778C9.33333 34.9183 8.63722 34.2222 7.77778 34.2222ZM6.22222 46.6667H3.11111V37.3333H6.22222V46.6667ZM54.4444 18.6667H48.2222C47.3628 18.6667 46.6667 19.3628 46.6667 20.2222V48.2222C46.6667 49.0817 47.3628 49.7778 48.2222 49.7778H54.4444C55.3039 49.7778 56 49.0817 56 48.2222V20.2222C56 19.3628 55.3039 18.6667 54.4444 18.6667ZM52.8889 46.6667H49.7778V21.7778H52.8889V46.6667ZM48.8804 8.62167C49.595 9.065 50.4301 9.33333 51.3333 9.33333C53.9107 9.33333 56 7.24403 56 4.66667C56 2.08931 53.9107 0 51.3333 0C48.756 0 46.6667 2.08931 46.6667 4.66667C46.6667 5.20236 46.7756 5.70792 46.9418 6.18722L38.2307 13.1561C37.5161 12.7118 36.681 12.4435 35.7778 12.4435C34.8746 12.4435 34.0394 12.7118 33.3249 13.1561L24.6138 6.18722C24.78 5.70889 24.8889 5.20236 24.8889 4.66667C24.8889 2.08931 22.7996 0 20.2222 0C17.6449 0 15.5556 2.08931 15.5556 4.66667C15.5556 5.38611 15.7315 6.05889 16.0222 6.6675L6.6675 16.0222C6.05889 15.7315 5.38611 15.5556 4.66667 15.5556C2.08931 15.5556 0 17.6449 0 20.2222C0 22.7996 2.08931 24.8889 4.66667 24.8889C7.24403 24.8889 9.33333 22.7996 9.33333 20.2222C9.33333 19.5028 9.15736 18.83 8.86667 18.2214L18.2214 8.86667C18.83 9.15736 19.5028 9.33333 20.2222 9.33333C21.1254 9.33333 21.9606 9.065 22.6751 8.62069L31.3862 15.5896C31.22 16.0689 31.1111 16.5754 31.1111 17.1111C31.1111 19.6885 33.2004 21.7778 35.7778 21.7778C38.3551 21.7778 40.4444 19.6885 40.4444 17.1111C40.4444 16.5754 40.3356 16.0689 40.1693 15.5896L48.8804 8.62167ZM51.3333 3.11111C52.1908 3.11111 52.8889 3.80917 52.8889 4.66667C52.8889 5.52417 52.1908 6.22222 51.3333 6.22222C50.4758 6.22222 49.7778 5.52417 49.7778 4.66667C49.7778 3.80917 50.4758 3.11111 51.3333 3.11111ZM4.66667 21.7778C3.80917 21.7778 3.11111 21.0797 3.11111 20.2222C3.11111 19.3647 3.80917 18.6667 4.66667 18.6667C5.52417 18.6667 6.22222 19.3647 6.22222 20.2222C6.22222 21.0797 5.52417 21.7778 4.66667 21.7778ZM20.2222 6.22222C19.3647 6.22222 18.6667 5.52417 18.6667 4.66667C18.6667 3.80917 19.3647 3.11111 20.2222 3.11111C21.0797 3.11111 21.7778 3.80917 21.7778 4.66667C21.7778 5.52417 21.0797 6.22222 20.2222 6.22222ZM35.7778 18.6667C34.9203 18.6667 34.2222 17.9686 34.2222 17.1111C34.2222 16.2536 34.9203 15.5556 35.7778 15.5556C36.6353 15.5556 37.3333 16.2536 37.3333 17.1111C37.3333 17.9686 36.6353 18.6667 35.7778 18.6667ZM23.3333 18.6667H17.1111C16.2517 18.6667 15.5556 19.3628 15.5556 20.2222V48.2222C15.5556 49.0817 16.2517 49.7778 17.1111 49.7778H23.3333C24.1928 49.7778 24.8889 49.0817 24.8889 48.2222V20.2222C24.8889 19.3628 24.1928 18.6667 23.3333 18.6667ZM21.7778 46.6667H18.6667V21.7778H21.7778V46.6667ZM38.8889 31.1111H32.6667C31.8072 31.1111 31.1111 31.8072 31.1111 32.6667V48.2222C31.1111 49.0817 31.8072 49.7778 32.6667 49.7778H38.8889C39.7483 49.7778 40.4444 49.0817 40.4444 48.2222V32.6667C40.4444 31.8072 39.7483 31.1111 38.8889 31.1111ZM37.3333 46.6667H34.2222V34.2222H37.3333V46.6667Z" fill="black"/>
</svg>
