<svg width="20" height="20" viewBox="0 0 20 20" fill="none" xmlns="http://www.w3.org/2000/svg">
<path d="M0 8.52273H8.57143V0H0V8.52273ZM1.42857 1.42045H7.14286V7.10227H1.42857V1.42045ZM11.4286 0V8.52273H20V0H11.4286ZM18.5714 7.10227H12.8571V1.42045H18.5714V7.10227ZM0 19.8864H8.57143V11.3636H0V19.8864ZM1.42857 12.7841H7.14286V18.4659H1.42857V12.7841ZM2.85714 2.84091H5.71429V5.68182H2.85714V2.84091ZM17.1429 5.68182H14.2857V2.84091H17.1429V5.68182ZM2.85714 14.2045H5.71429V17.0455H2.85714V14.2045ZM18.5714 11.3636H20V17.0455H14.2857V15.625H12.8571V19.8864H11.4286V11.3636H15.7143V12.7841H18.5714V11.3636ZM18.5714 18.4659H20V19.8864H18.5714V18.4659ZM15.7143 18.4659H17.1429V19.8864H15.7143V18.4659Z" fill="black"/>
</svg>
