<svg width="53" height="60" viewBox="0 0 53 60" fill="none" xmlns="http://www.w3.org/2000/svg">
<path d="M41.25 37.5C37.8984 37.5 34.8984 38.9648 32.8359 41.2852L21.6445 34.2891C22.7695 31.5469 22.7812 28.4531 21.6445 25.7109L32.8359 18.7148C34.8984 21.0352 37.8984 22.5 41.25 22.5C47.4609 22.5 52.5 17.4609 52.5 11.25C52.5 5.03906 47.4609 0 41.25 0C35.0391 0 30 5.03906 30 11.25C30 12.7734 30.3047 14.2148 30.8438 15.5391L19.6523 22.5352C17.6016 20.2148 14.6016 18.75 11.25 18.75C5.03906 18.75 0 23.7891 0 30C0 36.2109 5.03906 41.25 11.25 41.25C14.6016 41.25 17.6016 39.7852 19.6641 37.4648L30.8555 44.4609C30.3047 45.7852 30.0117 47.2266 30.0117 48.75C30.0117 54.9609 35.0508 60 41.2617 60C47.4727 60 52.5117 54.9609 52.5117 48.75C52.5 42.5391 47.4609 37.5 41.25 37.5ZM41.25 3.75C45.3867 3.75 48.75 7.11328 48.75 11.25C48.75 15.3867 45.3867 18.75 41.25 18.75C37.1133 18.75 33.75 15.3867 33.75 11.25C33.75 7.11328 37.1133 3.75 41.25 3.75ZM11.25 37.5C7.11328 37.5 3.75 34.1367 3.75 30C3.75 25.8633 7.11328 22.5 11.25 22.5C15.3867 22.5 18.75 25.8633 18.75 30C18.75 34.1367 15.3867 37.5 11.25 37.5ZM41.25 56.25C37.1133 56.25 33.75 52.8867 33.75 48.75C33.75 44.6133 37.1133 41.25 41.25 41.25C45.3867 41.25 48.75 44.6133 48.75 48.75C48.75 52.8867 45.3867 56.25 41.25 56.25Z" fill="black"/>
</svg>
