<svg width="51" height="54" viewBox="0 0 51 54" fill="none" xmlns="http://www.w3.org/2000/svg">
<path d="M47.5183 8.82596L27.2663 0.387642C26.6494 0.131728 25.9881 0 25.3202 0C24.6524 0 23.9911 0.131728 23.3742 0.387642L3.12218 8.82596C1.2341 9.60651 0 11.4524 0 13.4987C0 34.4363 12.0773 48.908 23.3636 53.6124C24.6083 54.1292 26.0111 54.1292 27.2558 53.6124C36.2953 49.8468 50.6299 36.8412 50.6299 13.4987C50.6299 11.4524 49.3958 9.60651 47.5183 8.82596ZM25.9689 50.5007C25.547 50.6695 25.0829 50.6695 24.6715 50.5007C14.3451 46.4081 3.37533 32.063 3.37533 13.4987C3.37533 12.8131 3.7867 12.2013 4.40902 11.9376L24.661 3.49927C25.0724 3.33051 25.547 3.33051 25.9584 3.49927L46.2104 11.9376C46.8432 12.2013 47.2546 12.8131 47.2441 13.4987C47.2546 32.063 36.2848 46.4081 25.9689 50.5007ZM40.3352 16.22C39.8394 15.7243 39.0378 15.7243 38.542 16.2095L21.3068 33.3076L14.0287 25.9769C13.533 25.4811 12.7313 25.4811 12.2356 25.9663L11.339 26.8629C10.8432 27.3586 10.8432 28.1603 11.3284 28.656L20.3891 37.7905C20.8848 38.2863 21.6865 38.2863 22.1822 37.8011L41.2212 18.9203C41.717 18.4246 41.717 17.6229 41.2318 17.1272L40.3352 16.22Z" fill="black"/>
</svg>
