<svg width="141" height="140" viewBox="0 0 141 140" fill="none" xmlns="http://www.w3.org/2000/svg">
<path d="M0.5 70C0.5 31.3401 31.8401 0 70.5 0C109.16 0 140.5 31.3401 140.5 70C140.5 108.66 109.16 140 70.5 140C31.8401 140 0.5 108.66 0.5 70Z" fill="#79A2A4"/>
<path d="M92.4154 69.3971L71.2174 90.6667C70.5443 91.3398 69.4557 91.3398 68.7826 90.6667L47.5846 69.3971C46.9115 68.724 46.9115 67.6354 47.5846 66.9622L48.6016 65.9453C49.2747 65.2721 50.3633 65.2721 51.0365 65.9453L67.5651 82.5599V37.8867C67.5651 36.9414 68.3385 36.168 69.2839 36.168H70.7161C71.6615 36.168 72.4349 36.9414 72.4349 37.8867V82.5599L88.9635 65.9596C89.6367 65.2865 90.7253 65.2865 91.3984 65.9596L92.4154 66.9766C93.0885 67.6354 93.0885 68.724 92.4154 69.3971ZM97.5 98.6159V97.47C97.5 96.5247 96.7266 95.7513 95.7812 95.7513H44.2188C43.2734 95.7513 42.5 96.5247 42.5 97.47V98.6159C42.5 99.5612 43.2734 100.335 44.2188 100.335H95.7812C96.7266 100.335 97.5 99.5612 97.5 98.6159Z" fill="white"/>
</svg>
